<?xml version="1.0" encoding="UTF-8" standalone="no"?>
<!DOCTYPE svg PUBLIC "-//W3C//DTD SVG 1.1//EN" "http://www.w3.org/Graphics/SVG/1.1/DTD/svg11.dtd">
<svg width="100%" height="100%" viewBox="0 0 200 200" version="1.1" xmlns="http://www.w3.org/2000/svg" xmlns:xlink="http://www.w3.org/1999/xlink" xml:space="preserve" xmlns:serif="http://www.serif.com/" style="fill-rule:evenodd;clip-rule:evenodd;stroke-linejoin:round;stroke-miterlimit:1.41421;">
    <g transform="matrix(3.03359,0,0,3.03359,-203.359,-203.344)">
        <g transform="matrix(2,0,0,2,125.671,75.63)">
            <path d="M0,24.739C0.066,24.673 1.331,24.341 0.931,23.542L-9.843,3.591C-8.912,1.53 -10.176,-0.665 -12.17,-1.064C-12.303,-2.26 -11.771,-3.79 -12.835,-3.79C-13.234,-3.79 -13.5,-3.523 -13.5,-3.125L-13.5,-1.064C-15.495,-0.665 -16.758,1.53 -15.827,3.591C-27.997,26.401 -27.399,23.807 -25.67,24.739C-26.269,26.336 -27.465,27.599 -26.469,28.065C-26.401,28.13 -26.269,28.13 -26.201,28.13C-25.47,28.13 -25.47,27.265 -24.472,25.337C-24.006,25.537 -23.341,26.002 -23.009,25.337L-12.835,6.385C-1.929,26.468 -2.927,26.334 -1.198,25.337C-0.201,27.266 -0.134,28.529 0.797,28.063C1.795,27.599 0.598,26.334 0,24.739M-10.84,2.195C-10.84,4.788 -14.83,4.854 -14.83,2.195C-14.83,-0.465 -10.84,-0.465 -10.84,2.195M-23.874,24.141C-23.94,24.075 -25.137,23.543 -25.07,23.609L-14.963,4.789C-14.696,5.056 -14.231,5.322 -13.766,5.388L-23.874,24.141ZM-11.838,5.387C-11.44,5.254 -10.974,4.988 -10.708,4.788L-0.6,23.608C-0.666,23.608 -1.863,24.206 -1.796,24.14L-11.838,5.387Z" style="fill:rgb(245,75,70);fill-rule:nonzero;"/>
        </g>
        <g transform="matrix(2,0,0,2,100.933,79.0888)">
            <path d="M0,0.931C0.598,0.333 -0.332,-0.598 -0.931,0C-1.597,0.599 -0.598,1.529 0,0.931" style="fill:rgb(245,75,70);fill-rule:nonzero;"/>
        </g>
    </g>
</svg>
