<?xml version="1.0" encoding="UTF-8" standalone="no"?>
<!DOCTYPE svg PUBLIC "-//W3C//DTD SVG 1.1//EN" "http://www.w3.org/Graphics/SVG/1.1/DTD/svg11.dtd">
<svg width="100%" height="100%" viewBox="0 0 200 200" version="1.1" xmlns="http://www.w3.org/2000/svg" xmlns:xlink="http://www.w3.org/1999/xlink" xml:space="preserve" xmlns:serif="http://www.serif.com/" style="fill-rule:evenodd;clip-rule:evenodd;stroke-miterlimit:10;">
    <g transform="matrix(5.54217,0,0,5.54217,-1549.56,-2337.07)">
        <clipPath id="_clip1">
            <rect x="280.348" y="422.443" width="34.58" height="34.58" clip-rule="nonzero"/>
        </clipPath>
        <g clip-path="url(#_clip1)">
            <g transform="matrix(0.40117,0.916004,0.916004,-0.40117,314.476,444.834)">
                <path d="M-3.622,-5.541C0.099,-3.912 4.461,-3.783 8.475,-5.541" style="fill:none;stroke:rgb(245,75,70);stroke-width:1.08px;"/>
            </g>
            <g transform="matrix(1,0,0,1,288.041,440.829)">
                <path d="M0,-2.192C-0.46,-3.355 -0.712,-4.623 -0.712,-5.95C-0.712,-11.602 3.869,-16.183 9.521,-16.183C15.172,-16.183 19.753,-11.602 19.753,-5.95C19.753,-3.296 18.743,-0.879 17.086,0.94C15.215,2.994 12.518,4.283 9.521,4.283C6.523,4.283 3.827,2.994 1.955,0.94C-2.541,3.552 -5.566,8.416 -5.566,13.991" style="fill:none;stroke:rgb(245,75,70);stroke-width:1.08px;"/>
            </g>
            <g transform="matrix(1,0,0,1,301.699,429.588)">
                <path d="M0,9.834C-0.467,10.292 -1.025,10.521 -1.676,10.521C-2.328,10.521 -2.882,10.292 -3.34,9.834C-3.815,9.376 -4.052,8.817 -4.052,8.157C-4.052,7.497 -3.815,6.939 -3.34,6.481C-2.882,6.024 -2.327,5.795 -1.676,5.794C-1.025,5.794 -0.466,6.023 0,6.481C0.466,6.939 0.699,7.497 0.699,8.157C0.699,8.817 0.467,9.376 0,9.834M-6.943,5.939C-7.339,6.345 -7.819,6.547 -8.382,6.547C-8.945,6.547 -9.424,6.345 -9.82,5.939C-10.216,5.543 -10.414,5.064 -10.414,4.501C-10.414,3.938 -10.216,3.458 -9.82,3.063C-9.424,2.659 -8.945,2.455 -8.382,2.455C-7.819,2.455 -7.339,2.659 -6.943,3.063C-6.538,3.458 -6.336,3.938 -6.336,4.501C-6.336,5.064 -6.539,5.543 -6.943,5.939M-2.693,-0.184C-2.358,-0.518 -1.954,-0.685 -1.478,-0.685C-0.995,-0.685 -0.586,-0.518 -0.251,-0.184C0.092,0.159 0.263,0.569 0.263,1.043C0.263,1.527 0.092,1.94 -0.251,2.283C-0.585,2.617 -0.995,2.784 -1.478,2.784C-1.954,2.784 -2.359,2.617 -2.693,2.283C-3.036,1.94 -3.207,1.527 -3.207,1.043C-3.207,0.569 -3.036,0.159 -2.693,-0.184M0.58,5.913C-0.045,5.288 -0.798,4.976 -1.677,4.976C-2.557,4.976 -3.306,5.288 -3.921,5.913C-4.133,6.124 -4.309,6.349 -4.449,6.586L-5.874,5.887C-5.645,5.473 -5.531,5.011 -5.531,4.501C-5.531,4.176 -5.579,3.876 -5.676,3.604L-3.459,2.641C-3.407,2.711 -3.345,2.782 -3.275,2.852C-2.773,3.354 -2.174,3.605 -1.479,3.605C-0.775,3.605 -0.172,3.353 0.329,2.852C0.822,2.35 1.069,1.748 1.069,1.044C1.069,0.339 0.822,-0.259 0.329,-0.751C-0.173,-1.253 -0.775,-1.504 -1.479,-1.504C-2.174,-1.504 -2.774,-1.253 -3.275,-0.751C-3.768,-0.259 -4.014,0.339 -4.014,1.044C-4.014,1.362 -3.966,1.655 -3.869,1.929L-6.033,2.866C-6.13,2.734 -6.239,2.606 -6.363,2.483C-6.925,1.93 -7.598,1.652 -8.382,1.652C-9.165,1.652 -9.833,1.929 -10.388,2.483C-10.951,3.046 -11.233,3.719 -11.233,4.502C-11.233,5.285 -10.951,5.958 -10.388,6.521C-9.833,7.075 -9.165,7.352 -8.382,7.352C-7.606,7.352 -6.942,7.084 -6.39,6.546L-4.753,7.338C-4.823,7.602 -4.858,7.875 -4.858,8.156C-4.858,9.036 -4.546,9.785 -3.921,10.4C-3.306,11.025 -2.557,11.338 -1.677,11.338C-0.798,11.338 -0.045,11.025 0.58,10.4C1.195,9.785 1.504,9.036 1.504,8.156C1.504,7.277 1.195,6.528 0.58,5.913" style="fill:rgb(245,75,70);"/>
            </g>
        </g>
    </g>
</svg>
