<?xml version="1.0" encoding="UTF-8" standalone="no"?>
<!DOCTYPE svg PUBLIC "-//W3C//DTD SVG 1.1//EN" "http://www.w3.org/Graphics/SVG/1.1/DTD/svg11.dtd">
<svg width="100%" height="100%" viewBox="0 0 204 64" version="1.1" xmlns="http://www.w3.org/2000/svg" xmlns:xlink="http://www.w3.org/1999/xlink" xml:space="preserve" xmlns:serif="http://www.serif.com/" style="fill-rule:evenodd;clip-rule:evenodd;stroke-linejoin:round;stroke-miterlimit:1.41421;">
    <g id="Artboard1" transform="matrix(1.00371,0,0,1,2.72038,-59.3576)">
        <rect x="-2.71" y="59.358" width="202.71" height="63.44" style="fill:none;"/>
        <g id="logo-svg" serif:id="logo svg" transform="matrix(1.54887,0,0,1.55461,-1.98967,-1178.81)">
            <g transform="matrix(1,0,0,1,11.2761,835.407)">
                <path d="M0,-35.277L-11.094,-17.639L0,0L7.6,0L-3.496,-17.639L7.6,-35.277L0,-35.277Z" style="fill:rgb(245,75,70);fill-rule:nonzero;"/>
            </g>
            <g transform="matrix(1,0,0,1,0,793.646)">
                <rect x="27.215" y="6.484" width="6.332" height="35.276" style="fill:rgb(245,75,70);"/>
            </g>
            <g transform="matrix(1,0,0,1,0,793.646)">
                <rect x="41.887" y="6.484" width="6.332" height="35.276" style="fill:rgb(245,75,70);"/>
            </g>
            <g transform="matrix(1,0,0,1,14.3339,793.646)">
                <rect x="41.887" y="6.484" width="6.332" height="35.276" style="fill:rgb(245,75,70);"/>
            </g>
            <g transform="matrix(1,0,0,1,85.928,815.303)">
                <path d="M0,-5.482L-1.034,-5.482L-3.312,-2.804L-3.312,-5.482L-4.151,-5.482L-4.151,0L-3.312,0L-3.312,-1.59L-2.475,-2.576L-0.775,0L0.211,0L-1.918,-3.226L0,-5.482Z" style="fill:rgb(245,75,70);fill-rule:nonzero;"/>
            </g>
            <g transform="matrix(1,0,0,1,90.3757,811.686)">
                <path d="M0,1.828C-0.021,1.3 -0.291,0.863 -0.803,0.601C-1.014,0.493 -1.266,0.414 -1.56,0.372L-0.121,-1.324L-0.144,-1.867L-3.24,-1.867L-3.24,-1.074L-1.365,-1.074L-1.429,-0.998L-2.945,0.772L-2.759,1.203C-2.535,1.159 -2.298,1.121 -2.074,1.121C-2.036,1.121 -1.999,1.123 -1.963,1.124C-1.588,1.142 -1.305,1.248 -1.118,1.408C-0.945,1.556 -0.854,1.75 -0.854,1.962C-0.854,1.973 -0.855,1.984 -0.856,1.994C-0.872,2.461 -1.243,2.817 -1.847,2.86C-1.887,2.862 -1.928,2.864 -1.97,2.864C-2.01,2.864 -2.031,2.864 -2.089,2.858C-2.561,2.801 -2.863,2.519 -2.953,2.423L-3.493,3.05C-3.438,3.116 -3.379,3.178 -3.314,3.235C-3.023,3.487 -2.641,3.645 -2.194,3.684C-2.179,3.685 -2.165,3.687 -2.151,3.688C-2.115,3.69 -2.078,3.691 -2.042,3.692C-2.015,3.693 -1.99,3.695 -1.963,3.695C-1.955,3.695 -1.949,3.694 -1.941,3.694C-1.928,3.694 -1.916,3.695 -1.903,3.695C-0.661,3.695 0.003,2.862 0.003,1.894C0.003,1.872 0.001,1.85 0,1.828" style="fill:rgb(245,75,70);fill-rule:nonzero;"/>
            </g>
            <g transform="matrix(1,0,0,1,83.5777,816.419)">
                <path d="M0,5.636C-1.174,5.636 -1.965,4.885 -1.965,3.702L-1.965,1.933C-1.965,0.751 -1.174,0 0,0C1.12,0 1.894,0.68 1.957,1.776L1.12,1.776C1.05,1.119 0.508,0.83 0,0.83C-0.548,0.83 -1.128,1.166 -1.128,1.933L-1.128,3.702C-1.128,4.47 -0.548,4.806 0,4.806C0.508,4.806 1.05,4.516 1.12,3.858L1.957,3.858C1.887,4.947 1.12,5.636 0,5.636" style="fill:rgb(166,168,171);fill-rule:nonzero;"/>
            </g>
            <g transform="matrix(1,0,0,1,86.6527,820.121)">
                <path d="M0,-1.769C0,-2.951 0.791,-3.703 1.964,-3.703C3.139,-3.703 3.93,-2.951 3.93,-1.769L3.93,0C3.93,1.182 3.139,1.934 1.964,1.934C0.791,1.934 0,1.182 0,0L0,-1.769ZM3.092,-1.769C3.092,-2.536 2.513,-2.873 1.964,-2.873C1.417,-2.873 0.837,-2.536 0.837,-1.769L0.837,0C0.837,0.767 1.417,1.104 1.964,1.104C2.513,1.104 3.092,0.767 3.092,0L3.092,-1.769Z" style="fill:rgb(166,168,171);fill-rule:nonzero;"/>
            </g>
            <g transform="matrix(1,0,0,1,95.7888,816.497)">
                <path d="M0,5.48L-0.837,5.48L-3.092,1.55L-3.092,5.48L-3.93,5.48L-3.93,0L-3.092,0L-0.837,3.93L-0.837,0L0,0L0,5.48Z" style="fill:rgb(166,168,171);fill-rule:nonzero;"/>
            </g>
            <g transform="matrix(1,0,0,1,96.9402,818.196)">
                <path d="M0,2.082L0.853,2.082C0.97,2.692 1.393,3.029 2.035,3.029C2.599,3.029 2.959,2.755 2.959,2.332C2.959,1.925 2.732,1.675 2.184,1.542L1.213,1.307C0.494,1.136 0.086,0.556 0.086,-0.227C0.086,-1.284 0.885,-1.778 1.855,-1.778C2.959,-1.778 3.593,-1.151 3.726,-0.235L2.873,-0.235C2.764,-0.681 2.395,-0.948 1.864,-0.948C1.213,-0.948 0.939,-0.642 0.939,-0.227C0.939,0.195 1.198,0.415 1.558,0.501L2.497,0.728C3.366,0.939 3.812,1.463 3.812,2.348C3.812,3.232 3.162,3.86 2.02,3.86C0.76,3.86 0.086,3.1 0,2.082" style="fill:rgb(166,168,171);fill-rule:nonzero;"/>
            </g>
            <g transform="matrix(1,0,0,1,104.988,822.056)">
                <path d="M0,-5.559L0.838,-5.559L0.838,-1.934C0.838,-0.753 0.047,0 -1.127,0C-2.302,0 -3.093,-0.753 -3.093,-1.934L-3.093,-5.559L-2.254,-5.559L-2.254,-1.934C-2.254,-1.168 -1.675,-0.83 -1.127,-0.83C-0.579,-0.83 0,-1.168 0,-1.934L0,-5.559Z" style="fill:rgb(166,168,171);fill-rule:nonzero;"/>
            </g>
            <g transform="matrix(1,0,0,1,107.19,821.977)">
                <path d="M0,-5.48L0.837,-5.48L0.837,-0.83L3.232,-0.83L3.232,0L0,0L0,-5.48Z" style="fill:rgb(166,168,171);fill-rule:nonzero;"/>
            </g>
            <g transform="matrix(1,0,0,1,112.818,821.147)">
                <path d="M0,-3.82L0,0.83L-0.837,0.83L-0.837,-3.82L-2.379,-3.82L-2.379,-4.65L1.542,-4.65L1.542,-3.82L0,-3.82Z" style="fill:rgb(166,168,171);fill-rule:nonzero;"/>
            </g>
            <g transform="matrix(1,0,0,1,0,796.584)">
                <rect x="115.425" y="19.913" width="0.837" height="5.48" style="fill:rgb(166,168,171);"/>
            </g>
            <g transform="matrix(1,0,0,1,121.589,816.497)">
                <path d="M0,5.48L-0.837,5.48L-3.092,1.55L-3.092,5.48L-3.93,5.48L-3.93,0L-3.092,0L-0.837,3.93L-0.837,0L0,0L0,5.48Z" style="fill:rgb(166,168,171);fill-rule:nonzero;"/>
            </g>
            <g transform="matrix(1,0,0,1,126.791,820.302)">
                <path d="M0,-2.13L-0.838,-2.13C-0.924,-2.772 -1.456,-3.054 -1.957,-3.054C-2.506,-3.054 -3.085,-2.717 -3.085,-1.95L-3.085,-0.181C-3.085,0.587 -2.506,0.923 -1.957,0.923C-1.409,0.923 -0.83,0.587 -0.83,-0.181L-0.83,-0.533L-1.957,-0.533L-1.957,-1.339L0.007,-1.339L0.007,-0.181C0.007,1.002 -0.783,1.753 -1.957,1.753C-3.132,1.753 -3.922,1.002 -3.922,-0.181L-3.922,-1.95C-3.922,-3.132 -3.132,-3.883 -1.957,-3.883C-0.846,-3.883 -0.079,-3.21 0,-2.13" style="fill:rgb(166,168,171);fill-rule:nonzero;"/>
            </g>
            <g transform="matrix(1,0,0,1,84.6347,824.495)">
                <path d="M0,2.834L-2.051,2.834L-2.513,4.157L-3.374,4.157L-1.456,-1.323L-0.595,-1.323L1.323,4.157L0.462,4.157L0,2.834ZM-0.266,2.059L-1.025,-0.117L-1.785,2.059L-0.266,2.059Z" style="fill:rgb(166,168,171);fill-rule:nonzero;"/>
            </g>
            <g transform="matrix(1,0,0,1,88.677,823.095)">
                <path d="M0,5.636C-1.174,5.636 -1.965,4.885 -1.965,3.702L-1.965,1.933C-1.965,0.751 -1.174,0 0,0C1.12,0 1.894,0.681 1.957,1.776L1.12,1.776C1.05,1.119 0.508,0.83 0,0.83C-0.547,0.83 -1.127,1.166 -1.127,1.933L-1.127,3.702C-1.127,4.47 -0.547,4.806 0,4.806C0.508,4.806 1.05,4.516 1.12,3.859L1.957,3.859C1.887,4.947 1.12,5.636 0,5.636" style="fill:rgb(166,168,171);fill-rule:nonzero;"/>
            </g>
            <g transform="matrix(1,0,0,1,93.7169,823.095)">
                <path d="M0,5.636C-1.174,5.636 -1.965,4.885 -1.965,3.702L-1.965,1.933C-1.965,0.751 -1.174,0 0,0C1.12,0 1.894,0.681 1.957,1.776L1.12,1.776C1.05,1.119 0.508,0.83 0,0.83C-0.548,0.83 -1.128,1.166 -1.128,1.933L-1.128,3.702C-1.128,4.47 -0.548,4.806 0,4.806C0.508,4.806 1.05,4.516 1.12,3.859L1.957,3.859C1.887,4.947 1.12,5.636 0,5.636" style="fill:rgb(166,168,171);fill-rule:nonzero;"/>
            </g>
            <g transform="matrix(1,0,0,1,96.7916,826.797)">
                <path d="M0,-1.769C0,-2.951 0.791,-3.703 1.965,-3.703C3.139,-3.703 3.93,-2.951 3.93,-1.769L3.93,0C3.93,1.182 3.139,1.934 1.965,1.934C0.791,1.934 0,1.182 0,0L0,-1.769ZM3.092,-1.769C3.092,-2.536 2.513,-2.873 1.965,-2.873C1.417,-2.873 0.838,-2.536 0.838,-1.769L0.838,0C0.838,0.767 1.417,1.104 1.965,1.104C2.513,1.104 3.092,0.767 3.092,0L3.092,-1.769Z" style="fill:rgb(166,168,171);fill-rule:nonzero;"/>
            </g>
            <g transform="matrix(1,0,0,1,105.037,828.732)">
                <path d="M0,-5.559L0.837,-5.559L0.837,-1.934C0.837,-0.753 0.047,0 -1.128,0C-2.302,0 -3.093,-0.753 -3.093,-1.934L-3.093,-5.559L-2.255,-5.559L-2.255,-1.934C-2.255,-1.168 -1.676,-0.83 -1.128,-0.83C-0.579,-0.83 0,-1.168 0,-1.934L0,-5.559Z" style="fill:rgb(166,168,171);fill-rule:nonzero;"/>
            </g>
            <g transform="matrix(1,0,0,1,111.168,823.173)">
                <path d="M0,5.48L-0.837,5.48L-3.092,1.55L-3.092,5.48L-3.93,5.48L-3.93,0L-3.092,0L-0.837,3.93L-0.837,0L0,0L0,5.48Z" style="fill:rgb(166,168,171);fill-rule:nonzero;"/>
            </g>
            <g transform="matrix(1,0,0,1,114.617,827.823)">
                <path d="M0,-3.82L0,0.83L-0.837,0.83L-0.837,-3.82L-2.379,-3.82L-2.379,-4.65L1.542,-4.65L1.542,-3.82L0,-3.82Z" style="fill:rgb(166,168,171);fill-rule:nonzero;"/>
            </g>
            <g transform="matrix(1,0,0,1,0,809.936)">
                <rect x="117.224" y="13.237" width="0.837" height="5.48" style="fill:rgb(166,168,171);"/>
            </g>
            <g transform="matrix(1,0,0,1,123.388,823.173)">
                <path d="M0,5.48L-0.837,5.48L-3.092,1.55L-3.092,5.48L-3.93,5.48L-3.93,0L-3.092,0L-0.837,3.93L-0.837,0L0,0L0,5.48Z" style="fill:rgb(166,168,171);fill-rule:nonzero;"/>
            </g>
            <g transform="matrix(1,0,0,1,128.591,826.978)">
                <path d="M0,-2.13L-0.838,-2.13C-0.924,-2.772 -1.456,-3.054 -1.957,-3.054C-2.506,-3.054 -3.085,-2.717 -3.085,-1.95L-3.085,-0.18C-3.085,0.587 -2.506,0.923 -1.957,0.923C-1.409,0.923 -0.83,0.587 -0.83,-0.18L-0.83,-0.533L-1.957,-0.533L-1.957,-1.339L0.007,-1.339L0.007,-0.18C0.007,1.002 -0.783,1.753 -1.957,1.753C-3.132,1.753 -3.922,1.002 -3.922,-0.18L-3.922,-1.95C-3.922,-3.132 -3.132,-3.883 -1.957,-3.883C-0.846,-3.883 -0.079,-3.21 0,-2.13" style="fill:rgb(166,168,171);fill-rule:nonzero;"/>
            </g>
            <g transform="matrix(1,0,0,1,81.7772,835.329)">
                <path d="M0,-5.48L0.838,-5.48L0.838,-0.83L3.233,-0.83L3.233,0L0,0L0,-5.48Z" style="fill:rgb(166,168,171);fill-rule:nonzero;"/>
            </g>
            <g transform="matrix(1,0,0,1,86.9163,833.026)">
                <path d="M0,-0.876L2.395,-0.876L2.395,-0.046L0,-0.046L0,1.472L2.395,1.472L2.395,2.302L-0.837,2.302L-0.837,-3.178L2.395,-3.178L2.395,-2.348L0,-2.348L0,-0.876Z" style="fill:rgb(166,168,171);fill-rule:nonzero;"/>
            </g>
            <g transform="matrix(1,0,0,1,94.4082,833.654)">
                <path d="M0,-2.13L-0.838,-2.13C-0.924,-2.772 -1.456,-3.053 -1.957,-3.053C-2.506,-3.053 -3.085,-2.717 -3.085,-1.95L-3.085,-0.18C-3.085,0.587 -2.506,0.923 -1.957,0.923C-1.409,0.923 -0.83,0.587 -0.83,-0.18L-0.83,-0.533L-1.957,-0.533L-1.957,-1.339L0.007,-1.339L0.007,-0.18C0.007,1.002 -0.783,1.753 -1.957,1.753C-3.132,1.753 -3.922,1.002 -3.922,-0.18L-3.922,-1.95C-3.922,-3.132 -3.132,-3.883 -1.957,-3.883C-0.846,-3.883 -0.079,-3.21 0,-2.13" style="fill:rgb(166,168,171);fill-rule:nonzero;"/>
            </g>
            <g transform="matrix(1,0,0,1,98.5247,831.172)">
                <path d="M0,2.834L-2.051,2.834L-2.513,4.157L-3.374,4.157L-1.456,-1.323L-0.594,-1.323L1.323,4.157L0.462,4.157L0,2.834ZM-0.266,2.059L-1.025,-0.117L-1.785,2.059L-0.266,2.059Z" style="fill:rgb(166,168,171);fill-rule:nonzero;"/>
            </g>
            <g transform="matrix(1,0,0,1,100.917,835.329)">
                <path d="M0,-5.48L0.837,-5.48L0.837,-0.83L3.232,-0.83L3.232,0L0,0L0,-5.48Z" style="fill:rgb(166,168,171);fill-rule:nonzero;"/>
            </g>
        </g>
    </g>
</svg>
